<?xml version="1.0" encoding="UTF-8" standalone="no"?>
<!-- Created with Inkscape (http://www.inkscape.org/) -->

<svg
   xmlns:dc="http://purl.org/dc/elements/1.1/"
   xmlns:cc="http://creativecommons.org/ns#"
   xmlns:rdf="http://www.w3.org/1999/02/22-rdf-syntax-ns#"
   xmlns:svg="http://www.w3.org/2000/svg"
   xmlns="http://www.w3.org/2000/svg"
   xmlns:sodipodi="http://sodipodi.sourceforge.net/DTD/sodipodi-0.dtd"
   xmlns:inkscape="http://www.inkscape.org/namespaces/inkscape"
   width="1052.3622"
   height="744.09448"
   id="svg2"
   version="1.1"
   inkscape:version="0.48.4 r9939"
   sodipodi:docname="New document 1">
  <defs
     id="defs4" />
  <sodipodi:namedview
     id="base"
     pagecolor="#ffffff"
     bordercolor="#666666"
     borderopacity="1.0"
     inkscape:pageopacity="0.0"
     inkscape:pageshadow="2"
     inkscape:zoom="0.67598942"
     inkscape:cx="526.18109"
     inkscape:cy="372.04724"
     inkscape:document-units="px"
     inkscape:current-layer="layer1"
     showgrid="false"
     inkscape:window-width="1360"
     inkscape:window-height="702"
     inkscape:window-x="0"
     inkscape:window-y="27"
     inkscape:window-maximized="1" />
  <metadata
     id="metadata7">
    <rdf:RDF>
      <cc:Work
         rdf:about="">
        <dc:format>image/svg+xml</dc:format>
        <dc:type
           rdf:resource="http://purl.org/dc/dcmitype/StillImage" />
        <dc:title></dc:title>
      </cc:Work>
    </rdf:RDF>
  </metadata>
  <g
     inkscape:label="Layer 1"
     inkscape:groupmode="layer"
     id="layer1"
     transform="translate(0,-308.2677)">
    <path
       style="fill:#000000;fill-opacity:1;fill-rule:nonzero;stroke:none"
       d="M 264.8125 316.5625 C 263.99296 316.5625 263.3125 317.24296 263.3125 318.0625 L 263.3125 587.28125 C 263.3125 588.10079 263.99296 588.78125 264.8125 588.78125 L 457.125 588.78125 L 457.125 504.71875 C 457.125 504.1701 457.68148 504.07616 458.09375 503.71875 C 479.63392 485.0448 500.2468 485.04476 519.9375 503.71875 C 520.3336 504.09439 520.9375 504.1701 520.9375 504.71875 L 520.9375 588.78125 L 755.9375 588.78125 C 756.75704 588.78125 757.40625 588.10079 757.40625 587.28125 L 757.40625 318.0625 C 757.40625 317.24296 756.75704 316.5625 755.9375 316.5625 L 264.8125 316.5625 z "
       transform="translate(0,308.2677)"
       id="rect2985" />
    <path
       style="fill:#000000;fill-opacity:1;fill-rule:nonzero;stroke:#ffffff;stroke-width:1.70000017;stroke-miterlimit:4;stroke-opacity:1;stroke-dasharray:none;stroke-dashoffset:0"
       d="M 189.75 279.65625 C 188.46215 279.65625 187.4375 280.6809 187.4375 281.96875 L 187.4375 323.34375 C 187.4375 324.6316 188.46215 325.6875 189.75 325.6875 L 811.28125 325.6875 C 812.5691 325.6875 813.625 324.6316 813.625 323.34375 L 813.625 281.96875 C 813.625 280.6809 812.5691 279.65625 811.28125 279.65625 L 723.84375 279.65625 L 723.84375 301.09375 C 723.84375 301.38491 723.63491 301.625 723.34375 301.625 L 706.59375 301.625 C 706.30259 301.625 706.0625 301.38491 706.0625 301.09375 L 706.0625 279.65625 L 680.96875 279.65625 L 680.96875 303.1875 C 680.96875 303.47866 680.72866 303.71875 680.4375 303.71875 L 663.71875 303.71875 C 663.42759 303.71875 663.1875 303.47866 663.1875 303.1875 L 663.1875 279.65625 L 629.71875 279.65625 L 629.71875 301.09375 C 629.71875 301.38491 629.47866 301.625 629.1875 301.625 L 612.46875 301.625 C 612.17759 301.625 611.9375 301.38491 611.9375 301.09375 L 611.9375 279.65625 L 577.40625 279.65625 L 577.40625 300.0625 C 577.40625 300.35366 577.16616 300.5625 576.875 300.5625 L 560.15625 300.5625 C 559.86509 300.5625 559.625 300.35366 559.625 300.0625 L 559.625 279.65625 L 527.1875 279.65625 L 527.1875 296.90625 C 527.1875 297.19741 526.97866 297.4375 526.6875 297.4375 L 509.9375 297.4375 C 509.64634 297.4375 509.40625 297.19741 509.40625 296.90625 L 509.40625 279.65625 L 473.84375 279.65625 L 473.84375 299 C 473.84375 299.29116 473.60366 299.53125 473.3125 299.53125 L 456.59375 299.53125 C 456.30259 299.53125 456.0625 299.29116 456.0625 299 L 456.0625 279.65625 L 413.1875 279.65625 L 413.1875 297.96875 C 413.1875 298.25991 412.94741 298.5 412.65625 298.5 L 395.9375 298.5 C 395.64634 298.5 395.40625 298.25991 395.40625 297.96875 L 395.40625 279.65625 L 356.6875 279.65625 L 356.6875 299 C 356.6875 299.29116 356.44741 299.53125 356.15625 299.53125 L 339.4375 299.53125 C 339.14634 299.53125 338.90625 299.29116 338.90625 299 L 338.90625 279.65625 L 303.34375 279.65625 L 303.34375 299 C 303.34375 299.29116 303.10366 299.53125 302.8125 299.53125 L 286.09375 299.53125 C 285.80259 299.53125 285.5625 299.29116 285.5625 299 L 285.5625 279.65625 L 189.75 279.65625 z "
       transform="translate(0,308.2677)"
       id="rect3767" />
    <path
       style="fill:#000000;fill-opacity:1;fill-rule:nonzero;stroke:#ffffff;stroke-width:4.19999981;stroke-miterlimit:4;stroke-opacity:1;stroke-dasharray:none"
       d="m 169.21837,571.58542 88.45791,0 18.95526,328.4075 -124.26229,0 z"
       id="rect2987"
       inkscape:connector-curvature="0"
       sodipodi:nodetypes="ccccc" />
    <path
       sodipodi:nodetypes="ccccc"
       inkscape:connector-curvature="0"
       id="path3761"
       d="m 747.62979,571.58542 88.45791,0 18.95526,328.4075 -124.26229,0 z"
       style="fill:#000000;fill-opacity:1;fill-rule:nonzero;stroke:#ffffff;stroke-width:4.19999981;stroke-miterlimit:4;stroke-opacity:1;stroke-dasharray:none" />
    <path
       style="fill:#000000;fill-opacity:1;fill-rule:nonzero;stroke:#ffffff;stroke-width:1.70000017;stroke-miterlimit:4;stroke-opacity:1;stroke-dasharray:none;stroke-dashoffset:0"
       d="M 171.96875 215.84375 C 170.6809 215.84375 169.65625 216.89965 169.65625 218.1875 L 169.65625 259.5625 C 169.65625 260.85035 170.6809 261.875 171.96875 261.875 L 252.71875 261.875 C 254.0066 261.875 255.03125 260.85035 255.03125 259.5625 L 255.03125 218.1875 C 255.03125 216.89965 254.0066 215.84375 252.71875 215.84375 L 240.59375 215.84375 L 240.59375 227.875 C 240.59375 228.16616 240.35366 228.40625 240.0625 228.40625 L 225.4375 228.40625 C 225.14634 228.40625 224.90625 228.16616 224.90625 227.875 L 224.90625 215.84375 L 202.9375 215.84375 L 202.9375 226.84375 C 202.9375 227.13491 202.69741 227.34375 202.40625 227.34375 L 187.75 227.34375 C 187.45884 227.34375 187.25 227.13491 187.25 226.84375 L 187.25 215.84375 L 171.96875 215.84375 z "
       transform="translate(0,308.2677)"
       id="rect3769" />
    <path
       style="fill:#000000;fill-opacity:1;fill-rule:nonzero;stroke:#ffffff;stroke-width:1.70000017;stroke-miterlimit:4;stroke-opacity:1;stroke-dasharray:none;stroke-dashoffset:0"
       d="M 750.4375 215.84375 C 749.14965 215.84375 748.09375 216.89965 748.09375 218.1875 L 748.09375 259.5625 C 748.09375 260.85035 749.14965 261.875 750.4375 261.875 L 831.15625 261.875 C 832.4441 261.875 833.5 260.85035 833.5 259.5625 L 833.5 218.1875 C 833.5 216.89965 832.4441 215.84375 831.15625 215.84375 L 818 215.84375 L 818 228.90625 C 818 229.19741 817.75991 229.4375 817.46875 229.4375 L 802.84375 229.4375 C 802.55259 229.4375 802.3125 229.19741 802.3125 228.90625 L 802.3125 215.84375 L 778.25 215.84375 L 778.25 227.875 C 778.25 228.16616 778.00991 228.40625 777.71875 228.40625 L 763.09375 228.40625 C 762.80259 228.40625 762.5625 228.16616 762.5625 227.875 L 762.5625 215.84375 L 750.4375 215.84375 z "
       transform="translate(0,308.2677)"
       id="rect3771" />
    <rect
       style="fill:#000000;fill-opacity:1;fill-rule:nonzero;stroke:none;stroke-width:1.70000005000000010;stroke-miterlimit:4;stroke-opacity:1;stroke-dasharray:none;stroke-dashoffset:0"
       id="rect3820"
       width="3.8114154"
       height="106.91084"
       x="488.13776"
       y="491.52744"
       ry="0.26857483" />
    <path
       style="fill:#000000;fill-opacity:1;fill-rule:nonzero;stroke:none"
       d="m 453.85648,504.23663 32.09491,-10.95249 c 0.10867,-0.0371 0.39176,-0.0524 0.39209,0 l 0.13411,21.85918 c 3.3e-4,0.0524 0.35831,0.0116 0.24971,0.0486 l -0.38388,0.131 c -0.10866,0.0371 -0.28348,0.0371 -0.39208,0 l -32.09492,-10.9525 c -0.10866,-0.0371 -0.10866,-0.0967 0,-0.13379 z"
       id="rect3827"
       inkscape:connector-curvature="0"
       sodipodi:nodetypes="sssssssss" />
  </g>
</svg>
